<svg width="51" height="51" viewBox="0 0 51 51" fill="none" xmlns="http://www.w3.org/2000/svg">
<path d="M51 32.5625C50.6667 35.1667 50.0729 37.4271 49.2188 39.3438C48.3646 41.2604 47.3333 42.9062 46.125 44.2812C44.9167 45.6354 43.5729 46.75 42.0938 47.625C40.6146 48.5 39.0833 49.1875 37.5 49.6875C35.9167 50.1875 34.3229 50.5312 32.7188 50.7188C31.1354 50.9062 29.6146 51 28.1562 51C24.4271 51 21.0104 50.4688 17.9062 49.4062C14.8021 48.3438 12.0625 46.75 9.6875 44.625C7.3125 42.5 5.32292 39.8438 3.71875 36.6562C2.13542 33.4479 1 29.7188 0.3125 25.4688C0.791667 25.6354 1.30208 25.7917 1.84375 25.9375C2.38542 26.0833 2.92708 26.2083 3.46875 26.3125C3.84375 22.0833 4.94792 18.375 6.78125 15.1875C8.61458 11.9792 10.9896 9.30208 13.9062 7.15625C16.8438 4.98958 20.2292 3.36458 24.0625 2.28125C27.9167 1.17708 32.0521 0.625 36.4688 0.625C38.4896 0.625 40.6458 0.729167 42.9375 0.9375C45.25 1.14583 47.7292 1.48958 50.375 1.96875C49.7708 3.86458 49.3125 5.77083 49 7.6875C48.7083 9.58333 48.5625 11.4792 48.5625 13.375C48.5625 15.375 48.7188 17.3542 49.0312 19.3125C47.8021 18.3958 46.5729 17.6354 45.3438 17.0312C44.1146 16.4062 42.9062 15.9167 41.7188 15.5625C40.5521 15.1875 39.4062 14.9271 38.2812 14.7812C37.1562 14.6146 36.0833 14.5312 35.0625 14.5312C33.1458 14.5312 31.1667 14.8021 29.125 15.3438C27.0833 15.8646 25.1458 16.6354 23.3125 17.6562C21.5 18.6771 19.875 19.9271 18.4375 21.4062C17 22.8646 15.9271 24.5417 15.2188 26.4375C16.0729 26.3125 16.8958 26.1562 17.6875 25.9688C18.4792 25.7604 19.2604 25.5312 20.0312 25.2812C19.9062 26.1979 19.8438 27.0521 19.8438 27.8438C19.8438 29.8021 20.1875 31.5521 20.875 33.0938C21.5625 34.6146 22.5 35.9062 23.6875 36.9688C24.875 38.0104 26.2812 38.8125 27.9062 39.375C29.5312 39.9167 31.2812 40.1875 33.1562 40.1875C34.2188 40.1875 35.4271 40.0938 36.7812 39.9062C38.1562 39.6979 39.6146 39.3229 41.1562 38.7812C42.6979 38.2188 44.3021 37.4479 45.9688 36.4688C47.6354 35.4688 49.3125 34.1667 51 32.5625Z" fill="black"/>
</svg>
