<svg width="35" height="35" viewBox="0 0 35 35" fill="none" xmlns="http://www.w3.org/2000/svg">
<path d="M15.3125 4.375C11.0972 4.375 7.65625 7.81594 7.65625 12.0312C7.65625 14.6672 9.00156 17.01 11.0403 18.3892C7.13891 20.0627 4.375 23.9312 4.375 28.4375H6.5625C6.5625 23.5922 10.4672 19.6875 15.3125 19.6875C16.8175 19.6875 18.2153 20.0791 19.4469 20.7484C18.1869 22.3052 17.4996 24.2473 17.5 26.25C17.5 31.0691 21.4309 35 26.25 35C31.0691 35 35 31.0691 35 26.25C35 21.4309 31.0691 17.5 26.25 17.5C24.407 17.5025 22.6121 18.0883 21.1225 19.1734C20.6391 18.8705 20.1163 18.6156 19.5847 18.3881C20.6256 17.6861 21.4785 16.7395 22.0685 15.6312C22.6585 14.5229 22.9676 13.2868 22.9688 12.0312C22.9688 7.81594 19.5278 4.375 15.3125 4.375ZM15.3125 6.5625C18.3455 6.5625 20.7812 8.99828 20.7812 12.0312C20.7812 15.0642 18.3455 17.5 15.3125 17.5C12.2795 17.5 9.84375 15.0642 9.84375 12.0312C9.84375 8.99828 12.2795 6.5625 15.3125 6.5625ZM26.25 19.6875C29.8878 19.6875 32.8125 22.6122 32.8125 26.25C32.8125 29.8878 29.8878 32.8125 26.25 32.8125C22.6122 32.8125 19.6875 29.8878 19.6875 26.25C19.6875 22.6122 22.6122 19.6875 26.25 19.6875ZM25.1562 21.875V25.1562H21.875V27.3438H25.1562V30.625H27.3438V27.3438H30.625V25.1562H27.3438V21.875H25.1562Z" fill="#007AFF"/>
</svg>
