<svg width="16" height="15" viewBox="0 0 16 15" fill="none" xmlns="http://www.w3.org/2000/svg">
<path d="M8.32138 7.32576C8.18682 7.32576 8.05226 7.27693 7.94603 7.17227C7.74065 6.96995 7.74065 6.63507 7.94603 6.43274L13.7534 0.711803C13.9588 0.509477 14.2987 0.509477 14.5041 0.711803C14.7095 0.914128 14.7095 1.24901 14.5041 1.45134L8.69674 7.17227C8.59051 7.27693 8.45595 7.32576 8.32138 7.32576Z" fill="#545454"/>
<path d="M14.6952 4.39535C14.4049 4.39535 14.1641 4.15814 14.1641 3.87209V1.04651H11.2958C11.0054 1.04651 10.7646 0.809302 10.7646 0.523256C10.7646 0.237209 11.0054 0 11.2958 0H14.6952C14.9856 0 15.2264 0.237209 15.2264 0.523256V3.87209C15.2264 4.15814 14.9856 4.39535 14.6952 4.39535Z" fill="#545454"/>
<path d="M9.73797 15H5.48867C1.64306 15 0 13.3814 0 9.59302V5.40698C0 1.6186 1.64306 0 5.48867 0H6.90511C7.19547 0 7.43627 0.237209 7.43627 0.523256C7.43627 0.809302 7.19547 1.04651 6.90511 1.04651H5.48867C2.2238 1.04651 1.06232 2.1907 1.06232 5.40698V9.59302C1.06232 12.8093 2.2238 13.9535 5.48867 13.9535H9.73797C13.0028 13.9535 14.1643 12.8093 14.1643 9.59302V8.19767C14.1643 7.91163 14.4051 7.67442 14.6955 7.67442C14.9858 7.67442 15.2266 7.91163 15.2266 8.19767V9.59302C15.2266 13.3814 13.5836 15 9.73797 15Z" fill="#545454"/>
</svg>
