<svg width="35" height="35" viewBox="0 0 35 35" fill="none" xmlns="http://www.w3.org/2000/svg">
<path d="M7.875 11.2639C9.80796 11.2639 11.375 9.71218 11.375 7.7981C11.375 5.88398 9.80796 4.33228 7.875 4.33228C5.942 4.33228 4.375 5.88398 4.375 7.7981C4.375 9.71218 5.942 11.2639 7.875 11.2639Z" fill="#0A84FF"/>
<path d="M18.083 11.2639C20.016 11.2639 21.583 9.71218 21.583 7.7981C21.583 5.88398 20.016 4.33228 18.083 4.33228C16.15 4.33228 14.583 5.88398 14.583 7.7981C14.583 9.71218 16.15 11.2639 18.083 11.2639Z" fill="#0A84FF"/>
<path d="M28.292 11.2639C30.225 11.2639 31.792 9.71218 31.792 7.7981C31.792 5.88398 30.225 4.33228 28.292 4.33228C26.359 4.33228 24.792 5.88398 24.792 7.7981C24.792 9.71218 26.359 11.2639 28.292 11.2639Z" fill="#0A84FF"/>
<path d="M7.875 21.3726C9.80796 21.3726 11.375 19.8208 11.375 17.9067C11.375 15.9927 9.80796 14.4409 7.875 14.4409C5.942 14.4409 4.375 15.9927 4.375 17.9067C4.375 19.8208 5.942 21.3726 7.875 21.3726Z" fill="#0A84FF"/>
<path d="M18.083 21.3726C20.016 21.3726 21.583 19.8208 21.583 17.9067C21.583 15.9927 20.016 14.4409 18.083 14.4409C16.15 14.4409 14.583 15.9927 14.583 17.9067C14.583 19.8208 16.15 21.3726 18.083 21.3726Z" fill="#0A84FF"/>
<path d="M28.292 21.3726C30.225 21.3726 31.792 19.8208 31.792 17.9067C31.792 15.9927 30.225 14.4409 28.292 14.4409C26.359 14.4409 24.792 15.9927 24.792 17.9067C24.792 19.8208 26.359 21.3726 28.292 21.3726Z" fill="#0A84FF"/>
<path d="M7.875 31.4812C9.80796 31.4812 11.375 29.9295 11.375 28.0154C11.375 26.1013 9.80796 24.5496 7.875 24.5496C5.942 24.5496 4.375 26.1013 4.375 28.0154C4.375 29.9295 5.942 31.4812 7.875 31.4812Z" fill="#0A84FF"/>
<path d="M18.083 31.4812C20.016 31.4812 21.583 29.9295 21.583 28.0154C21.583 26.1013 20.016 24.5496 18.083 24.5496C16.15 24.5496 14.583 26.1013 14.583 28.0154C14.583 29.9295 16.15 31.4812 18.083 31.4812Z" fill="#0A84FF"/>
<path d="M28.292 31.4812C30.225 31.4812 31.792 29.9295 31.792 28.0154C31.792 26.1013 30.225 24.5496 28.292 24.5496C26.359 24.5496 24.792 26.1013 24.792 28.0154C24.792 29.9295 26.359 31.4812 28.292 31.4812Z" fill="#0A84FF"/>
</svg>
